<?xml version="1.0" encoding="utf-8"?>
<!-- Generator: Adobe Illustrator 27.5.0, SVG Export Plug-In . SVG Version: 6.00 Build 0)  -->
<svg version="1.1" id="Layer_1" xmlns="http://www.w3.org/2000/svg" xmlns:xlink="http://www.w3.org/1999/xlink" x="0px" y="0px"
	 viewBox="0 0 229.5 163" style="enable-background:new 0 0 229.5 163;" xml:space="preserve">
<style type="text/css">
	.st0{fill:#141414;}
</style>
<g>
	<path class="st0" d="M114.6,45.5l0,6.5H88.7l0-5.9c0-22.1-15-21.5-17.7-21.5c-4,0-17.8,0.7-17.8,21.5v17.5h23.9v23.4H53.2v73H27.1
		v-73h-9.8V63.7h9.8c0,0,0-11.2,0-18.2C27.1,27.9,31.4,0,70.9,0C114,0,114.6,32.4,114.6,45.5z M114.7,63.7v96.4H88.7V63.7H114.7z"/>
	<path class="st0" d="M214,72.7c9.1,8.8,15.5,22.3,15.5,38.4c0,15.8-6.4,29.3-15.5,38.2c-7.8,7.7-19.7,13.8-37.1,13.8
		c-17.4,0-29.2-6.1-37.1-13.8c-9.1-8.8-15.5-22.3-15.5-38.2c0-16,6.4-29.6,15.5-38.4c7.8-7.7,19.7-13.8,37.1-13.8
		C194.3,58.9,206.2,65,214,72.7z M202.8,111c0-15.4-11-27.8-25.8-27.8c-14.8,0-25.8,12.4-25.8,27.8c0,14.9,10.8,27.5,25.8,27.5
		C192,138.6,202.8,125.9,202.8,111z"/>
</g>
</svg>
